<svg width="97" height="97" viewBox="0 0 97 97" fill="none" xmlns="http://www.w3.org/2000/svg">
<path d="M89.7252 36.375H84.8752C83.5359 36.375 82.4502 37.4607 82.4502 38.8V58.2C82.4502 59.5393 83.5359 60.625 84.8752 60.625H89.7252C91.0645 60.625 92.1502 59.5393 92.1502 58.2V38.8C92.1502 37.4607 91.0645 36.375 89.7252 36.375Z" fill="white"/>
<path d="M19.3999 36.375H33.9499V60.625H19.3999V36.375ZM36.3749 36.375H50.9249V60.625H36.3749V36.375ZM53.3499 36.375H67.8999V60.625H53.3499V36.375Z" fill="white"/>
<path fill-rule="evenodd" clip-rule="evenodd" d="M67.9001 21.8252H19.4001C15.5412 21.8252 11.8403 23.3581 9.11169 26.0868C6.38304 28.8154 4.8501 32.5163 4.8501 36.3752V60.6252C4.8501 64.4841 6.38304 68.1849 9.11169 70.9136C11.8403 73.6423 15.5412 75.1752 19.4001 75.1752H67.9001C71.759 75.1752 75.4598 73.6423 78.1885 70.9136C80.9172 68.1849 82.4501 64.4841 82.4501 60.6252V36.3752C82.4501 32.5163 80.9172 28.8154 78.1885 26.0868C75.4598 23.3581 71.759 21.8252 67.9001 21.8252ZM14.5501 36.3752C14.5501 35.0889 15.0611 33.8553 15.9706 32.9457C16.8802 32.0362 18.1138 31.5252 19.4001 31.5252H67.9001C69.1864 31.5252 70.42 32.0362 71.3296 32.9457C72.2391 33.8553 72.7501 35.0889 72.7501 36.3752V60.6252C72.7501 61.9115 72.2391 63.1451 71.3296 64.0547C70.42 64.9642 69.1864 65.4752 67.9001 65.4752H19.4001C18.1138 65.4752 16.8802 64.9642 15.9706 64.0547C15.0611 63.1451 14.5501 61.9115 14.5501 60.6252V36.3752Z" fill="white"/>
<path d="M6.27112 13.129C5.38765 12.2143 4.8988 10.9892 4.90985 9.71752C4.9209 8.44587 5.43097 7.22943 6.3302 6.3302C7.22943 5.43097 8.44587 4.9209 9.71752 4.90985C10.9892 4.8988 12.2143 5.38765 13.129 6.27112L90.729 83.8711C91.6125 84.7858 92.1013 86.011 92.0903 87.2826C92.0792 88.5543 91.5692 89.7707 90.6699 90.6699C89.7707 91.5692 88.5543 92.0792 87.2826 92.0903C86.011 92.1013 84.7858 91.6125 83.8711 90.729L6.27112 13.129Z" fill="white"/>
</svg>
