<svg width="97" height="97" viewBox="0 0 97 97" fill="none" xmlns="http://www.w3.org/2000/svg">
<g clip-path="url(#clip0_18_538)">
<path d="M88.9167 0H8.08333C5.9395 0 3.88347 0.851635 2.36755 2.36755C0.851635 3.88347 0 5.9395 0 8.08333L0 88.9167C0 91.0605 0.851635 93.1165 2.36755 94.6324C3.88347 96.1484 5.9395 97 8.08333 97H88.9167C91.0605 97 93.1165 96.1484 94.6324 94.6324C96.1484 93.1165 97 91.0605 97 88.9167V8.08333C97 5.9395 96.1484 3.88347 94.6324 2.36755C93.1165 0.851635 91.0605 0 88.9167 0ZM24.25 64.6667C23.4506 64.6667 22.6692 64.4296 22.0046 63.9855C21.3399 63.5414 20.8219 62.9102 20.516 62.1717C20.2101 61.4332 20.13 60.6205 20.286 59.8365C20.4419 59.0525 20.8269 58.3323 21.3921 57.7671C21.9573 57.2019 22.6775 56.8169 23.4615 56.661C24.2455 56.505 25.0582 56.5851 25.7967 56.891C26.5352 57.1969 27.1664 57.7149 27.6105 58.3796C28.0546 59.0442 28.2917 59.8256 28.2917 60.625C28.2917 61.6969 27.8658 62.7249 27.1079 63.4829C26.3499 64.2408 25.3219 64.6667 24.25 64.6667ZM88.9167 24.25H80.0897C79.1363 21.5533 77.2602 19.2806 74.7931 17.8333C72.3261 16.3861 69.4268 15.8576 66.6077 16.3413C63.7887 16.825 61.2314 18.2896 59.3878 20.4765C57.5442 22.6633 56.5331 25.4314 56.5331 28.2917C56.5331 31.1519 57.5442 33.9201 59.3878 36.1069C61.2314 38.2937 63.7887 39.7584 66.6077 40.242C69.4268 40.7257 72.3261 40.1972 74.7931 38.75C77.2602 37.3028 79.1363 35.03 80.0897 32.3333H88.9167V48.5H72.75V56.5833H88.9167V64.6667H80.8333V72.75H88.9167V88.9167H56.5833V84.1313C59.28 83.1779 61.5528 81.3019 63 78.8348C64.4472 76.3677 64.9757 73.4685 64.4921 70.6494C64.0084 67.8304 62.5437 65.2731 60.3569 63.4295C58.1701 61.5859 55.4019 60.5748 52.5417 60.5748C49.6814 60.5748 46.9133 61.5859 44.7265 63.4295C42.5396 65.2731 41.075 67.8304 40.5913 70.6494C40.1076 73.4685 40.6361 76.3677 42.0833 78.8348C43.5306 81.3019 45.8033 83.1779 48.5 84.1313V88.9167H28.2917V72.0063C30.9883 71.0529 33.2611 69.1769 34.7083 66.7098C36.1556 64.2427 36.6841 61.3435 36.2004 58.5244C35.7167 55.7054 34.252 53.1481 32.0652 51.3045C29.8784 49.4609 27.1102 48.4498 24.25 48.4498C21.3898 48.4498 18.6216 49.4609 16.4348 51.3045C14.248 53.1481 12.7833 55.7054 12.2996 58.5244C11.8159 61.3435 12.3444 64.2427 13.7917 66.7098C15.2389 69.1769 17.5117 71.0529 20.2083 72.0063V88.9167H8.08333V8.08333H24.25V32.3333H32.3333V8.08333H40.4167V48.5H48.5V8.08333H88.9167V24.25ZM72.75 28.2917C72.75 29.091 72.513 29.8724 72.0689 30.5371C71.6248 31.2017 70.9935 31.7198 70.255 32.0257C69.5165 32.3316 68.7038 32.4116 67.9198 32.2557C67.1358 32.0997 66.4157 31.7148 65.8504 31.1496C65.2852 30.5843 64.9003 29.8642 64.7443 29.0802C64.5884 28.2961 64.6684 27.4835 64.9743 26.745C65.2802 26.0065 65.7982 25.3752 66.4629 24.9311C67.1275 24.487 67.909 24.25 68.7083 24.25C69.7803 24.25 70.8083 24.6758 71.5662 25.4338C72.3242 26.1917 72.75 27.2197 72.75 28.2917Z" fill="white"/>
</g>
<defs>
<clipPath id="clip0_18_538">
<rect width="97" height="97" fill="white"/>
</clipPath>
</defs>
</svg>
