<svg width="97" height="97" viewBox="0 0 97 97" fill="none" xmlns="http://www.w3.org/2000/svg">
<path d="M28.2917 84.875H20.2083C17.9854 84.875 16.0831 84.0842 14.5015 82.5025C12.9199 80.9209 12.1277 79.0173 12.125 76.7917V48.5C12.125 43.4479 13.0856 38.7165 15.0067 34.3057C16.9278 29.8949 19.5199 26.0553 22.7829 22.7869C26.0458 19.5186 29.8854 16.9252 34.3016 15.0067C38.7178 13.0883 43.4506 12.1277 48.5 12.125C53.5494 12.1223 58.2822 13.0829 62.6984 15.0067C67.1146 16.9305 70.9542 19.5226 74.2171 22.7829C77.4801 26.0432 80.0735 29.8827 81.9973 34.3016C83.9212 38.7205 84.8804 43.4533 84.875 48.5V76.7917C84.875 79.0146 84.0842 80.9182 82.5025 82.5025C80.9209 84.0869 79.0173 84.8777 76.7917 84.875H68.7083C66.4854 84.875 64.5831 84.0842 63.0015 82.5025C61.4199 80.9209 60.6277 79.0173 60.625 76.7917V60.625C60.625 58.4021 61.4172 56.4998 63.0015 54.9182C64.5858 53.3365 66.4881 52.5444 68.7083 52.5417H76.7917V48.5C76.7917 40.6188 74.0474 33.9338 68.5588 28.4453C63.0702 22.9567 56.3839 20.211 48.5 20.2083C40.6161 20.2056 33.9311 22.9513 28.4452 28.4453C22.9594 33.9392 20.2137 40.6241 20.2083 48.5V52.5417H28.2917C30.5146 52.5417 32.4182 53.3338 34.0025 54.9182C35.5869 56.5025 36.3777 58.4048 36.375 60.625V76.7917C36.375 79.0146 35.5842 80.9182 34.0025 82.5025C32.4209 84.0869 30.5173 84.8777 28.2917 84.875Z" fill="white"/>
</svg>
