<svg width="97" height="97" viewBox="0 0 97 97" fill="none" xmlns="http://www.w3.org/2000/svg">
<path opacity="0.2" d="M37.0347 4.84961H79.3655C83.745 4.84961 87.3001 8.10881 87.3001 12.1246V89.7246C87.3001 93.7404 83.745 96.9996 79.3655 96.9996H37.0347C32.6551 96.9996 29.1001 93.7404 29.1001 89.7246V12.1246C29.1001 8.10881 32.6551 4.84961 37.0347 4.84961Z" fill="white"/>
<path fill-rule="evenodd" clip-rule="evenodd" d="M70.3249 2.4248H26.6749C24.7455 2.4248 22.895 3.19128 21.5307 4.5556C20.1664 5.91993 19.3999 7.77035 19.3999 9.6998V87.2998C19.3999 89.2293 20.1664 91.0797 21.5307 92.444C22.895 93.8083 24.7455 94.5748 26.6749 94.5748H70.3249C72.2544 94.5748 74.1048 93.8083 75.4691 92.444C76.8334 91.0797 77.5999 89.2293 77.5999 87.2998V9.6998C77.5999 7.77035 76.8334 5.91993 75.4691 4.5556C74.1048 3.19128 72.2544 2.4248 70.3249 2.4248ZM24.2499 9.6998C24.2499 9.05665 24.5054 8.43985 24.9602 7.98507C25.4149 7.53029 26.0318 7.2748 26.6749 7.2748H70.3249C70.9681 7.2748 71.5849 7.53029 72.0396 7.98507C72.4944 8.43985 72.7499 9.05665 72.7499 9.6998V87.2998C72.7499 87.943 72.4944 88.5598 72.0396 89.0145C71.5849 89.4693 70.9681 89.7248 70.3249 89.7248H26.6749C26.0318 89.7248 25.4149 89.4693 24.9602 89.0145C24.5054 88.5598 24.2499 87.943 24.2499 87.2998V9.6998Z" fill="white"/>
<path d="M48.4999 87.2996C47.2136 87.2996 45.98 86.7886 45.0704 85.8791C44.1609 84.9695 43.6499 83.7359 43.6499 82.4496C43.6499 81.1633 44.1609 79.9297 45.0704 79.0201C45.98 78.1106 47.2136 77.5996 48.4999 77.5996C49.7862 77.5996 51.0198 78.1106 51.9294 79.0201C52.8389 79.9297 53.3499 81.1633 53.3499 82.4496C53.3499 83.7359 52.8389 84.9695 51.9294 85.8791C51.0198 86.7886 49.7862 87.2996 48.4999 87.2996Z" fill="white"/>
</svg>
