<svg width="21" height="21" viewBox="0 0 21 21" fill="none" xmlns="http://www.w3.org/2000/svg">
<path d="M15.5005 0.000244141C18.5379 0.000388101 21.0005 2.46277 21.0005 5.50024V15.5002C21.0003 18.5376 18.5378 21.0001 15.5005 21.0002H5.50049C2.46301 21.0002 0.000632244 18.5377 0.000488281 15.5002V5.50024C0.000488281 2.46268 2.46292 0.000244141 5.50049 0.000244141H15.5005ZM5.50049 1.00024C3.01521 1.00024 1.00049 3.01496 1.00049 5.50024V15.5002C1.00063 17.9854 3.0153 20.0002 5.50049 20.0002H15.5005C17.9856 20.0001 20.0003 17.9853 20.0005 15.5002V5.50024C20.0005 3.01505 17.9856 1.00039 15.5005 1.00024H5.50049ZM8.47119 6.46216C9.31127 6.02632 10.2674 5.86632 11.2036 6.00513L11.5581 6.07251C12.3764 6.26189 13.1278 6.67738 13.7251 7.27466C14.4077 7.95728 14.853 8.84123 14.9946 9.79614L15.0327 10.1477C15.0892 10.9694 14.919 11.7934 14.5376 12.5286C14.1017 13.3686 13.4122 14.0503 12.5669 14.4758C11.7214 14.9014 10.7631 15.0491 9.82861 14.8987C8.89414 14.7483 8.03109 14.3072 7.36182 13.6379C6.6926 12.9687 6.25144 12.1056 6.10107 11.1711C5.95076 10.2367 6.09842 9.27825 6.52393 8.43286C6.94948 7.58759 7.63118 6.89803 8.47119 6.46216ZM11.0571 6.99438C10.329 6.88642 9.58457 7.01083 8.93115 7.34985C8.27792 7.6889 7.74841 8.22567 7.41748 8.88306C7.08663 9.54045 6.97157 10.2853 7.08838 11.012C7.20533 11.7387 7.54836 12.4104 8.06885 12.9309C8.58939 13.4515 9.26099 13.7944 9.98779 13.9114C10.7145 14.0282 11.4592 13.9132 12.1167 13.5823C12.7741 13.2514 13.3108 12.7219 13.6499 12.0686C13.9466 11.4968 14.0796 10.8553 14.0356 10.2161L14.0054 9.94263C13.8951 9.20002 13.5489 8.51255 13.0181 7.98169C12.5534 7.5171 11.969 7.19341 11.3325 7.04614L11.0571 6.99438ZM16.1108 4.51001C16.3385 4.55674 16.5103 4.75871 16.5103 5.00024C16.5101 5.24169 16.3385 5.44381 16.1108 5.49048L16.0103 5.50024H16.0005C15.7244 5.50024 15.5006 5.27626 15.5005 5.00024C15.5005 4.7241 15.7243 4.50024 16.0005 4.50024H16.0103L16.1108 4.51001Z" fill="currentColor"/>
</svg>
