<svg width="21" height="21" viewBox="0 0 21 21" fill="none" xmlns="http://www.w3.org/2000/svg">
<path d="M16.6689 4.2963C15.8666 3.48614 14.9111 2.84377 13.858 2.40661C12.8049 1.96946 11.6754 1.74627 10.5352 1.75005C5.75769 1.75005 1.86395 5.6438 1.86395 10.4213C1.86395 11.9525 2.26645 13.44 3.01895 14.7525L1.79395 19.25L6.38769 18.0425C7.65645 18.7338 9.08269 19.1013 10.5352 19.1013C15.3127 19.1013 19.2064 15.2075 19.2064 10.43C19.2064 8.1113 18.3052 5.93255 16.6689 4.2963ZM10.5352 17.6313C9.24019 17.6313 7.97144 17.2813 6.8602 16.625L6.59769 16.4675L3.8677 17.185L4.59395 14.525L4.41895 14.2538C3.6993 13.105 3.31725 11.7769 3.31645 10.4213C3.31645 6.4488 6.55394 3.2113 10.5264 3.2113C12.4514 3.2113 14.2627 3.9638 15.6189 5.3288C16.2906 5.99718 16.8229 6.79227 17.1849 7.66796C17.5469 8.54365 17.7314 9.4825 17.7277 10.43C17.7452 14.4025 14.5077 17.6313 10.5352 17.6313ZM14.4902 12.2413C14.2714 12.1363 13.2039 11.6113 13.0114 11.5325C12.8102 11.4625 12.6702 11.4275 12.5214 11.6375C12.3727 11.8563 11.9614 12.3463 11.8389 12.4863C11.7164 12.635 11.5852 12.6525 11.3664 12.5388C11.1477 12.4338 10.4477 12.1975 9.62519 11.4625C8.97769 10.885 8.54894 10.1763 8.41769 9.95755C8.29519 9.7388 8.40019 9.62505 8.51394 9.5113C8.61019 9.41505 8.7327 9.25755 8.8377 9.13505C8.9427 9.01255 8.98644 8.9163 9.05645 8.7763C9.12644 8.62755 9.09144 8.50505 9.03894 8.40005C8.98644 8.29505 8.54894 7.22755 8.37394 6.79005C8.19894 6.37005 8.01519 6.42255 7.88394 6.4138H7.46394C7.31519 6.4138 7.08769 6.4663 6.88644 6.68505C6.69394 6.9038 6.13394 7.4288 6.13394 8.4963C6.13394 9.5638 6.9127 10.5963 7.0177 10.7363C7.12269 10.885 8.54894 13.0725 10.7189 14.0088C11.2352 14.2363 11.6377 14.3675 11.9527 14.4638C12.4689 14.63 12.9414 14.6038 13.3177 14.5513C13.7377 14.49 14.6039 14.0263 14.7789 13.5188C14.9627 13.0113 14.9627 12.5825 14.9014 12.4863C14.8402 12.39 14.7089 12.3463 14.4902 12.2413Z" fill="currentColor"/>
</svg>
